<?xml version="1.0" standalone="no"?>
<!DOCTYPE svg PUBLIC "-//W3C//DTD SVG 20010904//EN"
 "http://www.w3.org/TR/2001/REC-SVG-20010904/DTD/svg10.dtd">
<svg version="1.0" xmlns="http://www.w3.org/2000/svg"
 width="219.000000pt" height="218.000000pt" viewBox="0 0 219.000000 218.000000"
 preserveAspectRatio="xMidYMid meet">

<g transform="translate(0.000000,218.000000) scale(0.100000,-0.100000)"
fill="#0085FF" stroke="none">
<path d="M935 2144 c-11 -2 -51 -11 -90 -20 -104 -23 -294 -120 -395 -201
-126 -102 -253 -262 -315 -397 -165 -361 -149 -698 47 -984 55 -80 142 -159
263 -238 66 -43 149 -99 185 -124 90 -63 145 -96 136 -81 -5 7 -3 49 4 93 l13
81 -41 39 c-48 46 -57 47 -137 23 -33 -10 -66 -20 -73 -21 -15 -3 -72 82 -72
108 0 9 20 46 45 82 48 71 52 86 33 150 -15 54 -22 62 -60 70 -18 3 -49 11
-70 17 l-38 10 0 74 0 74 76 41 c82 46 90 58 100 143 6 51 5 53 -40 105 -25
30 -46 58 -46 63 0 5 14 36 30 69 l30 60 85 0 c93 0 101 5 160 90 21 31 23 40
15 80 -15 75 -12 118 9 138 78 70 84 71 159 19 l65 -45 51 21 c68 27 78 39
112 125 30 79 37 86 102 96 56 8 76 -4 91 -56 26 -87 34 -95 102 -102 l62 -7
61 60 c62 62 81 70 118 50 11 -6 22 -9 24 -6 2 2 -69 53 -159 114 -152 103
-228 141 -342 173 -42 12 -266 22 -300 14z"/>
<path d="M1776 1752 c-3 -37 -8 -77 -10 -90 -5 -23 28 -66 74 -95 23 -15 30
-14 90 7 36 12 71 21 78 18 24 -8 11 15 -47 78 -32 36 -85 84 -118 107 l-60
42 -7 -67z"/>
<path d="M2036 1408 l-49 -70 12 -53 c16 -71 26 -82 104 -109 l67 -23 0 26
c-1 59 -60 284 -78 295 -4 2 -29 -28 -56 -66z"/>
<path d="M1247 1229 c-88 -21 -172 -94 -215 -188 -57 -124 -18 -269 90 -337
54 -34 142 -36 216 -4 81 35 171 143 187 226 29 154 -25 262 -147 299 -57 17
-75 17 -131 4z"/>
<path d="M941 106 c-45 -45 -60 -67 -50 -70 56 -19 108 -28 204 -33 94 -5 108
-4 99 8 -6 8 -21 42 -33 76 -13 34 -29 64 -35 66 -7 3 -37 8 -67 12 l-54 6
-64 -65z"/>
</g>
</svg>
