<?xml version="1.0" standalone="no"?>
<!DOCTYPE svg PUBLIC "-//W3C//DTD SVG 20010904//EN"
 "http://www.w3.org/TR/2001/REC-SVG-20010904/DTD/svg10.dtd">
<svg version="1.0" xmlns="http://www.w3.org/2000/svg"
 width="225.000000pt" height="225.000000pt" viewBox="0 0 225.000000 225.000000"
 preserveAspectRatio="xMidYMid meet">

<g transform="translate(0.000000,225.000000) scale(0.100000,-0.100000)"
fill="#ffffff" stroke="none">
<path d="M930 2105 c-208 -47 -406 -175 -548 -354 -89 -112 -139 -202 -181
-327 -111 -332 -64 -613 148 -873 23 -27 106 -90 226 -171 239 -159 283 -187
266 -167 -11 14 -11 31 -2 94 l12 78 -43 37 c-24 21 -48 38 -54 38 -6 0 -37
-9 -69 -20 -32 -11 -66 -18 -74 -15 -17 5 -61 75 -61 96 0 6 21 40 46 76 48
68 48 62 23 154 -9 35 -12 37 -76 54 -37 9 -71 22 -75 28 -4 7 -8 33 -8 60 0
55 15 74 88 111 60 30 66 38 82 108 14 63 20 49 -63 152 -18 23 -18 24 8 77
15 30 29 56 32 59 3 3 41 7 85 10 l81 5 40 48 41 47 -11 73 c-5 39 -8 78 -5
84 2 7 26 29 54 49 l50 37 59 -42 60 -43 62 25 61 24 23 69 c28 83 44 100 105
107 54 7 57 5 90 -78 l24 -60 59 -8 58 -8 56 55 c31 31 65 56 76 56 35 0 100
-44 98 -66 -1 -10 -5 -49 -9 -85 l-7 -65 39 -33 c42 -35 55 -36 143 -10 35 10
48 10 64 0 34 -22 -43 77 -103 131 -62 56 -398 286 -468 322 -97 49 -180 68
-312 72 -86 3 -145 -1 -190 -11z"/>
<path d="M2050 1502 c0 -8 -18 -39 -40 -69 -42 -60 -46 -82 -26 -148 11 -37
16 -41 85 -66 l73 -27 -7 51 c-9 73 -42 192 -65 235 -10 21 -19 31 -20 24z"/>
<path d="M1225 1249 c-134 -67 -202 -229 -152 -361 23 -59 92 -124 142 -134
120 -22 245 50 304 175 21 45 26 70 25 131 0 82 -13 117 -61 162 -39 37 -74
48 -151 48 -46 -1 -79 -7 -107 -21z"/>
<path d="M994 228 l-66 -63 44 -13 c48 -15 279 -28 262 -15 -5 4 -21 36 -33
70 -22 58 -26 63 -60 68 -20 4 -46 8 -59 11 -18 4 -38 -9 -88 -58z"/>
</g>
</svg>
